0
SECTION
2
HEADER
9
$INSUNITS
70
4
9
$ACADVER
1
AC1014
9
$HANDSEED
5
FFFF
0
ENDSEC
0
SECTION
2
TABLES
0
TABLE
2
VPORT
5
8
100
AcDbSymbolTable
0
ENDTAB
0
TABLE
2
LTYPE
5
5
100
AcDbSymbolTable
0
LTYPE
5
14
100
AcDbSymbolTableRecord
100
AcDbLinetypeTableRecord
2
BYBLOCK
70
0
0
LTYPE
5
15
100
AcDbSymbolTableRecord
100
AcDbLinetypeTableRecord
2
BYLAYER
70
0
0
ENDTAB
0
TABLE
2
LAYER
5
2
100
AcDbSymbolTable
70
2
0
LAYER
5
50
100
AcDbSymbolTableRecord
100
AcDbLayerTableRecord
2
0
70
0
6
CONTINUOUS
0
ENDTAB
0
TABLE
2
STYLE
5
3
100
AcDbSymbolTable
70
1
0
STYLE
5
11
100
AcDbSymbolTableRecord
100
AcDbTextStyleTableRecord
2
STANDARD
70
0
0
ENDTAB
0
TABLE
2
VIEW
5
6
100
AcDbSymbolTable
70
0
0
ENDTAB
0
TABLE
2
UCS
5
7
100
AcDbSymbolTable
70
0
0
ENDTAB
0
TABLE
2
APPID
5
9
100
AcDbSymbolTable
70
2
0
APPID
5
12
100
AcDbSymbolTableRecord
100
AcDbRegAppTableRecord
2
ACAD
70
0
0
ENDTAB
0
TABLE
2
DIMSTYLE
5
A
100
AcDbSymbolTable
70
1
0
ENDTAB
0
TABLE
2
BLOCK_RECORD
5
1
100
AcDbSymbolTable
70
1
0
BLOCK_RECORD
5
1F
100
AcDbSymbolTableRecord
100
AcDbBlockTableRecord
2
*MODEL_SPACE
0
BLOCK_RECORD
5
1B
100
AcDbSymbolTableRecord
100
AcDbBlockTableRecord
2
*PAPER_SPACE
0
ENDTAB
0
ENDSEC
0
SECTION
2
BLOCKS
0
BLOCK
5
20
100
AcDbEntity
100
AcDbBlockBegin
2
*MODEL_SPACE
0
ENDBLK
5
21
100
AcDbEntity
100
AcDbBlockEnd
0
BLOCK
5
1C
100
AcDbEntity
100
AcDbBlockBegin
2
*PAPER_SPACE
0
ENDBLK
5
1D
100
AcDbEntity
100
AcDbBlockEnd
0
ENDSEC
0
SECTION
2
ENTITIES
0
LWPOLYLINE
5
100
100
AcDbEntity
8
0
100
AcDbPolyline
90
102
70
1
43
0.0
10
3.6948222259525205e-13
20
-15
10
3.6948222259525205e-13
20
-5
10
-14.9999999999996
20
-5
10
-14.9999999999996
20
2.2204460492503131e-15
10
-24.999999999999602
20
2.6020852139652102e-15
10
-24.999999999999602
20
-4.9999999999999991
10
-34.999999999999602
20
-5
10
-34.999999999999602
20
2.2204460492503131e-15
10
-44.999999999999602
20
2.6020852139652102e-15
10
-44.999999999999602
20
-4.9999999999999991
10
-54.999999999999609
20
-5
10
-54.999999999999609
20
2.2204460492503131e-15
10
-64.999999999999602
20
2.6020852139652102e-15
10
-64.999999999999602
20
-4.9999999999999991
10
-74.999999999999602
20
-5
10
-74.999999999999602
20
2.2204460492503131e-15
10
-84.999999999999602
20
2.6020852139652102e-15
10
-84.999999999999602
20
-4.9999999999999991
10
-94.999999999999602
20
-5
10
-94.999999999999602
20
2.2204460492503131e-15
10
-105
20
2.6020852139652102e-15
10
-105
20
-4.9999999999999991
10
-115
20
-5
10
-115
20
2.2204460492503131e-15
10
-135.00000000000099
20
2.6020852139652102e-15
10
-135.00000000000099
20
-4.9999999999999991
10
-145.00000000000099
20
-5
10
-145.00000000000099
20
2.2204460492503131e-15
10
-155.00000000000099
20
2.6020852139652102e-15
10
-155.00000000000099
20
-4.9999999999999991
10
-165.00000000000099
20
-5
10
-165.00000000000099
20
2.2204460492503131e-15
10
-175.00000000000099
20
2.6020852139652102e-15
10
-175.00000000000099
20
-4.9999999999999991
10
-185.00000000000099
20
-5
10
-185.00000000000099
20
2.2204460492503131e-15
10
-195.00000000000099
20
2.6020852139652102e-15
10
-195.00000000000099
20
-4.9999999999999991
10
-205
20
-5
10
-205
20
-25
10
-245
20
-25
10
-245
20
-35
10
-250
20
-35
10
-250
20
-45
10
-245
20
-45
10
-245
20
-60.000000000000206
10
-239.95890482438699
20
-60.000000000000206
10
-239.95890482438699
20
-55.0273905231589
10
-229.972609476841
20
-55.0273905231589
10
-229.972609476841
20
-60.000000000000206
10
-219.95890482438699
20
-60.000000000000206
10
-219.95890482438699
20
-55.0273905231589
10
-209.972609476841
20
-55.0273905231589
10
-209.972609476841
20
-60.000000000000206
10
-199.95890482438699
20
-60.000000000000206
10
-199.95890482438699
20
-55.0273905231589
10
-189.972609476841
20
-55.0273905231589
10
-189.972609476841
20
-60.000000000000206
10
-179.95890482438699
20
-60.000000000000206
10
-179.95890482438699
20
-55.0273905231589
10
-169.972609476841
20
-55.0273905231589
10
-169.972609476841
20
-60.000000000000206
10
-159.95890482438699
20
-60.000000000000206
10
-159.95890482438699
20
-55.0273905231589
10
-149.972609476841
20
-55.0273905231589
10
-149.972609476841
20
-60.000000000000206
10
-139.95890482438699
20
-60.000000000000206
10
-139.95890482438699
20
-55.0273905231589
10
-129.972609476841
20
-55.0273905231589
10
-129.972609476841
20
-60.000000000000206
10
-119.95890482438702
20
-60.000000000000206
10
-119.95890482438702
20
-55.0273905231589
10
-109.972609476841
20
-55.0273905231589
10
-109.972609476841
20
-60.000000000000206
10
-99.958904824386707
20
-60.000000000000206
10
-99.958904824386707
20
-55.0273905231589
10
-89.972609476841001
20
-55.0273905231589
10
-89.972609476841001
20
-60.000000000000206
10
-79.958904824386707
20
-60.000000000000206
10
-79.958904824386707
20
-55.0273905231589
10
-69.972609476841001
20
-55.0273905231589
10
-69.972609476841001
20
-60.000000000000206
10
-59.958904824386707
20
-60.000000000000206
10
-59.958904824386707
20
-55.0273905231589
10
-49.972609476841008
20
-55.0273905231589
10
-49.972609476841008
20
-60.000000000000206
10
-39.9589048243867
20
-60.000000000000206
10
-39.9589048243867
20
-55.0273905231589
10
-29.972609476841004
20
-55.0273905231589
10
-29.972609476841004
20
-60.000000000000206
10
-19.9589048243867
20
-60.000000000000206
10
-19.9589048243867
20
-55.0273905231589
10
-9.9726094768410007
20
-55.0273905231589
10
-9.9726094768410007
20
-60.000000000000206
10
3.6970426720017713e-13
20
-60.000000000000206
10
3.6949610038306001e-13
20
-45
10
-4.9999999999996296
20
-45
10
-4.9999999999996296
20
-35
10
3.6970426720017713e-13
20
-35
10
3.6949610038306001e-13
20
-25
10
-4.9999999999996296
20
-25
10
-4.9999999999996296
20
-15
0
LWPOLYLINE
5
101
100
AcDbEntity
8
0
100
AcDbPolyline
90
6
70
1
43
0.0
10
-90
20
-20
10
-90
20
-35
42
-0.41421356237309503
10
-100
20
-45
10
-139.99999999999699
20
-45
42
-0.41421356237309503
10
-149.99999999999699
20
-35
10
-150
20
-20
0
ENDSEC
0
SECTION
2
OBJECTS
0
DICTIONARY
5
C
100
AcDbDictionary
3
ACAD_GROUP
350
D
3
ACAD_MLINESTYLE
350
17
0
DICTIONARY
5
D
100
AcDbDictionary
0
DICTIONARY
5
1A
330
C
100
AcDbDictionary
0
DICTIONARY
5
17
100
AcDbDictionary
0
ENDSEC
0
EOF
