0
SECTION
2
HEADER
9
$INSUNITS
70
4
9
$ACADVER
1
AC1014
9
$HANDSEED
5
FFFF
0
ENDSEC
0
SECTION
2
TABLES
0
TABLE
2
VPORT
5
8
100
AcDbSymbolTable
0
ENDTAB
0
TABLE
2
LTYPE
5
5
100
AcDbSymbolTable
0
LTYPE
5
14
100
AcDbSymbolTableRecord
100
AcDbLinetypeTableRecord
2
BYBLOCK
70
0
0
LTYPE
5
15
100
AcDbSymbolTableRecord
100
AcDbLinetypeTableRecord
2
BYLAYER
70
0
0
ENDTAB
0
TABLE
2
LAYER
5
2
100
AcDbSymbolTable
70
2
0
LAYER
5
50
100
AcDbSymbolTableRecord
100
AcDbLayerTableRecord
2
0
70
0
6
CONTINUOUS
0
ENDTAB
0
TABLE
2
STYLE
5
3
100
AcDbSymbolTable
70
1
0
STYLE
5
11
100
AcDbSymbolTableRecord
100
AcDbTextStyleTableRecord
2
STANDARD
70
0
0
ENDTAB
0
TABLE
2
VIEW
5
6
100
AcDbSymbolTable
70
0
0
ENDTAB
0
TABLE
2
UCS
5
7
100
AcDbSymbolTable
70
0
0
ENDTAB
0
TABLE
2
APPID
5
9
100
AcDbSymbolTable
70
2
0
APPID
5
12
100
AcDbSymbolTableRecord
100
AcDbRegAppTableRecord
2
ACAD
70
0
0
ENDTAB
0
TABLE
2
DIMSTYLE
5
A
100
AcDbSymbolTable
70
1
0
ENDTAB
0
TABLE
2
BLOCK_RECORD
5
1
100
AcDbSymbolTable
70
1
0
BLOCK_RECORD
5
1F
100
AcDbSymbolTableRecord
100
AcDbBlockTableRecord
2
*MODEL_SPACE
0
BLOCK_RECORD
5
1B
100
AcDbSymbolTableRecord
100
AcDbBlockTableRecord
2
*PAPER_SPACE
0
ENDTAB
0
ENDSEC
0
SECTION
2
BLOCKS
0
BLOCK
5
20
100
AcDbEntity
100
AcDbBlockBegin
2
*MODEL_SPACE
0
ENDBLK
5
21
100
AcDbEntity
100
AcDbBlockEnd
0
BLOCK
5
1C
100
AcDbEntity
100
AcDbBlockBegin
2
*PAPER_SPACE
0
ENDBLK
5
1D
100
AcDbEntity
100
AcDbBlockEnd
0
ENDSEC
0
SECTION
2
ENTITIES
0
LWPOLYLINE
5
100
100
AcDbEntity
8
0
100
AcDbPolyline
90
28
70
1
43
0.0
10
-0.0329690326181242
20
-249.99999999999901
10
0
20
0
10
-65
20
-1.4210854715202021e-16
10
-65
20
-5
10
-75
20
-5
10
-75
20
-1.4210854715202021e-16
10
-85
20
-1.4210854715202021e-16
10
-85
20
-5
10
-95
20
-5
10
-95
20
-1.4210854715202021e-16
10
-105
20
-1.4210854715202021e-16
10
-105
20
-5
10
-115
20
-5
10
-115
20
-1.4210854715202021e-16
10
-125
20
-1.4210854715202021e-16
10
-125
20
-5
10
-135
20
-5
10
-135
20
-1.4210854715202021e-16
10
-145
20
-1.4210854715202021e-16
10
-145
20
-5
10
-155
20
-5
10
-155
20
-1.4210854715202021e-16
10
-165
20
-1.4210854715202021e-16
10
-165
20
-5
10
-175
20
-5
10
-175
20
-1.4210854715202021e-16
10
-239.99871839583199
20
-1.4210854715202051e-16
10
-240.05457351289803
20
-249.99999999999901
0
LWPOLYLINE
5
101
100
AcDbEntity
8
0
100
AcDbPolyline
90
4
70
1
43
0.0
10
-19.998733485503202
20
-135
10
-19.998733485503202
20
-145
10
-22.998733388146899
20
-145
10
-22.998733388146803
20
-135
0
LWPOLYLINE
5
102
100
AcDbEntity
8
0
100
AcDbPolyline
90
4
70
1
43
0.0
10
-19.998733485503202
20
-155
10
-19.998733485503301
20
-165
10
-22.998733388146899
20
-165
10
-22.998733388146899
20
-155
0
LWPOLYLINE
5
103
100
AcDbEntity
8
0
100
AcDbPolyline
90
4
70
1
43
0.0
10
-216.99998500768501
20
-34.999999999999801
10
-216.99998500768601
20
-44.999999999999503
10
-219.999984910329
20
-44.999999999999503
10
-219.999984910329
20
-34.999999999999801
0
LWPOLYLINE
5
104
100
AcDbEntity
8
0
100
AcDbPolyline
90
4
70
1
43
0.0
10
-216.99998500768601
20
-54.999999999999901
10
-216.99998500768601
20
-64.999999999999503
10
-219.999984910329
20
-64.999999999999503
10
-219.999984910329
20
-54.999999999999901
0
LWPOLYLINE
5
105
100
AcDbEntity
8
0
100
AcDbPolyline
90
4
70
1
43
0.0
10
-216.99998500768601
20
-74.999999999999801
10
-216.99998500768601
20
-84.999999999999503
10
-219.999984910329
20
-84.999999999999503
10
-219.999984910329
20
-74.999999999999801
0
LWPOLYLINE
5
106
100
AcDbEntity
8
0
100
AcDbPolyline
90
4
70
1
43
0.0
10
-216.99998500768601
20
-94.999999999999801
10
-216.99998500768601
20
-105
10
-219.999984910329
20
-105
10
-219.999984910329
20
-94.999999999999801
0
LWPOLYLINE
5
107
100
AcDbEntity
8
0
100
AcDbPolyline
90
4
70
1
43
0.0
10
-216.99998500768601
20
-115
10
-216.99998500768601
20
-125
10
-219.999984910329
20
-125
10
-219.999984910329
20
-115
0
LWPOLYLINE
5
108
100
AcDbEntity
8
0
100
AcDbPolyline
90
4
70
1
43
0.0
10
-216.99998500768601
20
-135
10
-216.99998500768601
20
-145
10
-219.999984910329
20
-145
10
-219.999984910329
20
-135
0
LWPOLYLINE
5
109
100
AcDbEntity
8
0
100
AcDbPolyline
90
4
70
1
43
0.0
10
-19.998733485503202
20
-115
10
-19.998733485503202
20
-125
10
-22.998733388146803
20
-125
10
-22.998733388146803
20
-115
0
LWPOLYLINE
5
110
100
AcDbEntity
8
0
100
AcDbPolyline
90
4
70
1
43
0.0
10
-19.998733485503202
20
-95.000000000000114
10
-19.998733485503202
20
-105
10
-22.998733388146803
20
-105
10
-22.998733388146803
20
-95.000000000000114
0
LWPOLYLINE
5
111
100
AcDbEntity
8
0
100
AcDbPolyline
90
4
70
1
43
0.0
10
-19.998733485503099
20
-75.000000000000114
10
-19.998733485503202
20
-84.999999999999801
10
-22.998733388146803
20
-84.999999999999801
10
-22.998733388146803
20
-75.000000000000114
0
LWPOLYLINE
5
112
100
AcDbEntity
8
0
100
AcDbPolyline
90
4
70
1
43
0.0
10
-19.998733485503099
20
-55.000000000000107
10
-19.998733485503099
20
-64.999999999999801
10
-22.998733388146803
20
-64.999999999999801
10
-22.9987333881467
20
-55.000000000000107
0
LWPOLYLINE
5
113
100
AcDbEntity
8
0
100
AcDbPolyline
90
4
70
1
43
0.0
10
-19.998733485503099
20
-35
10
-19.998733485503099
20
-44.999999999999801
10
-22.9987333881467
20
-44.999999999999801
10
-22.9987333881467
20
-35
0
LWPOLYLINE
5
114
100
AcDbEntity
8
0
100
AcDbPolyline
90
4
70
1
43
0.0
10
-216.99998500768601
20
-155
10
-216.99998500768601
20
-165
10
-219.999984910329
20
-165
10
-219.999984910329
20
-155
0
LWPOLYLINE
5
115
100
AcDbEntity
8
0
100
AcDbPolyline
90
4
70
1
43
0.0
10
-93.416743343999698
20
-216.50000000000307
42
0.99999999999999989
10
-93.416743343999698
20
-211.50000000000301
10
-158.416743344
20
-211.50000000000301
42
0.99999999999999989
10
-158.416743344
20
-216.50000000000304
0
LWPOLYLINE
5
116
100
AcDbEntity
8
0
100
AcDbPolyline
90
4
70
1
43
0.0
10
-93.416743343999599
20
-136.50000000000307
42
0.99999999999999989
10
-93.416743343999599
20
-131.50000000000298
10
-158.416743344
20
-131.50000000000298
42
0.99999999999999989
10
-158.416743344
20
-136.50000000000301
0
LWPOLYLINE
5
117
100
AcDbEntity
8
0
100
AcDbPolyline
90
4
70
1
43
0.0
10
-93.416743343999599
20
-156.50000000000307
42
0.99999999999999989
10
-93.416743343999599
20
-151.50000000000298
10
-158.416743344
20
-151.50000000000298
42
0.99999999999999989
10
-158.416743344
20
-156.50000000000301
0
LWPOLYLINE
5
118
100
AcDbEntity
8
0
100
AcDbPolyline
90
4
70
1
43
0.0
10
-93.416743343999698
20
-176.50000000000304
42
0.99999999999999989
10
-93.416743343999698
20
-171.50000000000296
10
-158.416743344
20
-171.50000000000296
42
0.99999999999999989
10
-158.416743344
20
-176.50000000000301
0
LWPOLYLINE
5
119
100
AcDbEntity
8
0
100
AcDbPolyline
90
4
70
1
43
0.0
10
-93.416743343999698
20
-196.50000000000307
42
0.99999999999999989
10
-93.416743343999698
20
-191.50000000000301
10
-158.416743344
20
-191.50000000000301
42
0.99999999999999989
10
-158.416743344
20
-196.50000000000304
0
CIRCLE
5
120
100
AcDbEntity
8
0
100
AcDbCircle
10
-220.05457351289803
20
-237.49999999999901
30
-6.6613381477509392e-15
40
2.8999999999999999
210
0
220
-2.84217094304041e-17
230
1
0
CIRCLE
5
121
100
AcDbEntity
8
0
100
AcDbCircle
10
-20.032969032618105
20
-237.49999999999901
30
-6.6613381477509392e-15
40
2.8999999999999999
210
0
220
-2.84217094304041e-17
230
1
0
CIRCLE
5
122
100
AcDbEntity
8
0
100
AcDbCircle
10
-209.99871839583199
20
-9.9999999999999396
30
-5.5511151231257827e-16
40
1.5000000000000002
210
0
220
-2.84217094304041e-17
230
1
0
CIRCLE
5
123
100
AcDbEntity
8
0
100
AcDbCircle
10
-187.49871839583199
20
-9.9999999999999396
30
-5.5511151231257827e-16
40
1.5000000000000002
210
0
220
-2.84217094304041e-17
230
1
0
CIRCLE
5
124
100
AcDbEntity
8
0
100
AcDbCircle
10
-57.499999999999503
20
-9.9999999999999893
30
-5.5511151231257827e-16
40
1.5000000000000002
210
0
220
-2.84217094304041e-17
230
1
0
CIRCLE
5
125
100
AcDbEntity
8
0
100
AcDbCircle
10
-34.999999999999503
20
-9.9999999999999893
30
-5.5511151231257827e-16
40
1.5000000000000002
210
0
220
-2.84217094304041e-17
230
1
0
CIRCLE
5
126
100
AcDbEntity
8
0
100
AcDbCircle
10
-89.666744520388804
20
-29.250000000007098
30
4.829470157119431e-14
40
2
210
0
220
-2.84217094304041e-17
230
1
0
CIRCLE
5
127
100
AcDbEntity
8
0
100
AcDbCircle
10
-161.16674220005703
20
-100.75000000000001
30
-2.7755575615628914e-15
40
2
210
0
220
-2.84217094304041e-17
230
1
0
CIRCLE
5
128
100
AcDbEntity
8
0
100
AcDbCircle
10
-161.16674220005703
20
-29.250000000007002
30
8.8817841970012523e-15
40
2
210
0
220
-2.84217094304041e-17
230
1
0
CIRCLE
5
129
100
AcDbEntity
8
0
100
AcDbCircle
10
-89.666744520389003
20
-100.75000000000001
30
-2.7755575615628914e-15
40
2
210
0
220
-2.84217094304041e-17
230
1
0
CIRCLE
5
130
100
AcDbEntity
8
0
100
AcDbCircle
10
-125.916743343999
20
-65.000000000003396
30
-1.6653345369377348e-15
40
35
210
0
220
-2.84217094304041e-17
230
1
0
ENDSEC
0
SECTION
2
OBJECTS
0
DICTIONARY
5
C
100
AcDbDictionary
3
ACAD_GROUP
350
D
3
ACAD_MLINESTYLE
350
17
0
DICTIONARY
5
D
100
AcDbDictionary
0
DICTIONARY
5
1A
330
C
100
AcDbDictionary
0
DICTIONARY
5
17
100
AcDbDictionary
0
ENDSEC
0
EOF
