0
SECTION
2
HEADER
9
$INSUNITS
70
4
9
$ACADVER
1
AC1014
9
$HANDSEED
5
FFFF
0
ENDSEC
0
SECTION
2
TABLES
0
TABLE
2
VPORT
5
8
100
AcDbSymbolTable
0
ENDTAB
0
TABLE
2
LTYPE
5
5
100
AcDbSymbolTable
0
LTYPE
5
14
100
AcDbSymbolTableRecord
100
AcDbLinetypeTableRecord
2
BYBLOCK
70
0
0
LTYPE
5
15
100
AcDbSymbolTableRecord
100
AcDbLinetypeTableRecord
2
BYLAYER
70
0
0
ENDTAB
0
TABLE
2
LAYER
5
2
100
AcDbSymbolTable
70
2
0
LAYER
5
50
100
AcDbSymbolTableRecord
100
AcDbLayerTableRecord
2
0
70
0
6
CONTINUOUS
0
ENDTAB
0
TABLE
2
STYLE
5
3
100
AcDbSymbolTable
70
1
0
STYLE
5
11
100
AcDbSymbolTableRecord
100
AcDbTextStyleTableRecord
2
STANDARD
70
0
0
ENDTAB
0
TABLE
2
VIEW
5
6
100
AcDbSymbolTable
70
0
0
ENDTAB
0
TABLE
2
UCS
5
7
100
AcDbSymbolTable
70
0
0
ENDTAB
0
TABLE
2
APPID
5
9
100
AcDbSymbolTable
70
2
0
APPID
5
12
100
AcDbSymbolTableRecord
100
AcDbRegAppTableRecord
2
ACAD
70
0
0
ENDTAB
0
TABLE
2
DIMSTYLE
5
A
100
AcDbSymbolTable
70
1
0
ENDTAB
0
TABLE
2
BLOCK_RECORD
5
1
100
AcDbSymbolTable
70
1
0
BLOCK_RECORD
5
1F
100
AcDbSymbolTableRecord
100
AcDbBlockTableRecord
2
*MODEL_SPACE
0
BLOCK_RECORD
5
1B
100
AcDbSymbolTableRecord
100
AcDbBlockTableRecord
2
*PAPER_SPACE
0
ENDTAB
0
ENDSEC
0
SECTION
2
BLOCKS
0
BLOCK
5
20
100
AcDbEntity
100
AcDbBlockBegin
2
*MODEL_SPACE
0
ENDBLK
5
21
100
AcDbEntity
100
AcDbBlockEnd
0
BLOCK
5
1C
100
AcDbEntity
100
AcDbBlockBegin
2
*PAPER_SPACE
0
ENDBLK
5
1D
100
AcDbEntity
100
AcDbBlockEnd
0
ENDSEC
0
SECTION
2
ENTITIES
0
LWPOLYLINE
5
100
100
AcDbEntity
8
0
100
AcDbPolyline
90
88
70
1
43
0.0
10
-249.98252196721404
20
-44.937587483515699
10
-249.98252196721404
20
-59.937587483515706
10
-179.99999999998803
20
-59.968793741757608
10
-179.99999999998803
20
-64.949767232216303
10
-169.99999999998803
20
-64.949767232216303
10
-169.99999999998803
20
-59.968793741757608
10
-159.99999999998801
20
-59.968793741757608
10
-159.99999999998801
20
-64.949767232216303
10
-149.99999999998801
20
-64.949767232216303
10
-149.99999999998801
20
-59.968793741757608
10
-139.99999999998801
20
-59.968793741757608
10
-139.99999999998801
20
-64.949767232216303
10
-129.99999999998801
20
-64.949767232216303
10
-129.99999999998801
20
-59.968793741757608
10
-119.99999999998801
20
-59.968793741757608
10
-119.99999999998801
20
-64.949767232216303
10
-109.99999999998801
20
-64.949767232216303
10
-109.99999999998801
20
-59.968793741757608
10
-99.999999999988319
20
-59.968793741757608
10
-99.999999999988319
20
-64.949767232216303
10
-89.999999999988319
20
-64.949767232216303
10
-89.999999999988319
20
-59.968793741757608
10
-79.999999999988319
20
-59.968793741757608
10
-79.999999999988319
20
-64.949767232216303
10
-69.999999999988319
20
-64.949767232216303
10
-69.999999999988319
20
-59.968793741757608
10
-4.9999999999883027
20
-59.968793741757608
10
-4.9999999999882903
20
-45
10
1.1709522240721526e-11
20
-45
10
1.1709383462843399e-11
20
-35
10
-4.9999999999882903
20
-35
10
-4.9999999999882903
20
-25
10
1.1709522240721526e-11
20
-25
10
1.1709383462843399e-11
20
-15
10
-4.9999999999882903
20
-15
10
-4.9999999999882903
20
-5.0000000000000098
10
-14.999999999988297
20
-5
10
-14.999999999988301
20
2.2204460492503131e-15
10
-24.999999999988304
20
2.6020852139652102e-15
10
-24.999999999988304
20
-4.9999999999999991
10
-34.999999999988297
20
-5
10
-34.999999999988297
20
2.2204460492503131e-15
10
-44.999999999988304
20
2.6020852139652102e-15
10
-44.999999999988304
20
-4.9999999999999991
10
-54.999999999988304
20
-5
10
-54.999999999988304
20
2.2204460492503131e-15
10
-64.999999999988319
20
2.6020852139652102e-15
10
-64.999999999988319
20
-4.9999999999999991
10
-74.999999999988319
20
-5
10
-74.999999999988319
20
2.2204460492503131e-15
10
-84.999999999988319
20
2.6020852139652102e-15
10
-84.999999999988319
20
-4.9999999999999991
10
-94.999999999988319
20
-5
10
-94.999999999988319
20
2.2204460492503131e-15
10
-104.99999999998801
20
2.6020852139652102e-15
10
-104.99999999998801
20
-4.9999999999999991
10
-114.99999999998801
20
-5
10
-114.99999999998801
20
2.2204460492503131e-15
10
-134.99999999998801
20
2.6020852139652102e-15
10
-134.99999999998801
20
-4.9999999999999991
10
-144.99999999998801
20
-5
10
-144.99999999998801
20
2.2204460492503131e-15
10
-154.99999999998801
20
2.6020852139652102e-15
10
-154.99999999998801
20
-4.9999999999999991
10
-164.99999999998803
20
-5
10
-164.99999999998803
20
2.2204460492503131e-15
10
-174.99999999998803
20
2.6020852139652102e-15
10
-174.99999999998803
20
-4.9999999999999991
10
-184.99999999998803
20
-5
10
-184.99999999998803
20
2.2204460492503131e-15
10
-194.99999999998803
20
2.6020852139652102e-15
10
-194.99999999998803
20
-4.9999999999999991
10
-204.99999999998803
20
-5
10
-204.99999999998803
20
2.2204460492503131e-15
10
-214.99999999998803
20
2.6020852139652102e-15
10
-214.99999999998803
20
-4.9999999999999991
10
-224.99999999998803
20
-5
10
-224.99999999998803
20
2.2204460492503131e-15
10
-234.98252196721404
20
2.6020852139652102e-15
10
-234.98252196721404
20
-4.9999999999999991
10
-249.98252196721404
20
-5
10
-249.98252196721404
20
-15
10
-244.98252196721404
20
-15
10
-244.98252196721404
20
-25
10
-249.98252196721404
20
-25
10
-249.98252196721404
20
-34.961946980917503
10
-244.98252196721404
20
-34.961946980917503
10
-244.98252196721404
20
-44.937587483515699
0
LWPOLYLINE
5
101
100
AcDbEntity
8
0
100
AcDbPolyline
90
4
70
1
43
0.0
10
-164.99999999998903
20
-42.2750310328965
10
-94.999999999988617
20
-42.275031032896493
42
-0.99999999999999989
10
-94.999999999988617
20
-47.724968967103507
10
-164.99999999998903
20
-47.7249689671035
42
-0.99999999999999989
0
LWPOLYLINE
5
102
100
AcDbEntity
8
0
100
AcDbPolyline
90
4
70
1
43
0.0
10
-164.99999999998903
20
-32.2750310328965
10
-94.999999999988617
20
-32.275031032896486
42
-0.99999999999999989
10
-94.999999999988617
20
-37.724968967103514
10
-164.99999999998903
20
-37.7249689671035
42
-0.99999999999999989
0
LWPOLYLINE
5
103
100
AcDbEntity
8
0
100
AcDbPolyline
90
4
70
1
43
0.0
10
-164.99999999998903
20
-22.2750310328965
10
-94.999999999988617
20
-22.275031032896489
42
-0.99999999999999989
10
-94.999999999988617
20
-27.724968967103511
10
-164.99999999998903
20
-27.7249689671035
42
-0.99999999999999989
0
LWPOLYLINE
5
104
100
AcDbEntity
8
0
100
AcDbPolyline
90
4
70
1
43
0.0
10
-164.99999999998903
20
-12.275031032896502
10
-94.999999999988617
20
-12.275031032896489
42
-0.99999999999999989
10
-94.999999999988617
20
-17.724968967103511
10
-164.99999999998903
20
-17.7249689671035
42
-0.99999999999999989
0
CIRCLE
5
105
100
AcDbEntity
8
0
100
AcDbCircle
10
-214.98252196721404
20
-50.000000000000206
30
5.115659319688269e-13
40
1.5000000000000002
210
2.8421709430404001e-15
220
0
230
1
0
CIRCLE
5
106
100
AcDbEntity
8
0
100
AcDbCircle
10
-192.48252196721404
20
-50
30
4.4761708575041768e-13
40
1.5000000000000002
210
2.8421709430404001e-15
220
0
230
1
0
CIRCLE
5
107
100
AcDbEntity
8
0
100
AcDbCircle
10
-62.499999999988304
20
-50.000000000000107
30
7.8184538712058346e-14
40
1.5000000000000002
210
2.8421709430404001e-15
220
0
230
1
0
CIRCLE
5
108
100
AcDbEntity
8
0
100
AcDbCircle
10
-39.999999999988297
20
-50.000000000000107
30
1.4235692493649304e-14
40
1.5000000000000002
210
2.8421709430404001e-15
220
0
230
1
0
ENDSEC
0
SECTION
2
OBJECTS
0
DICTIONARY
5
C
100
AcDbDictionary
3
ACAD_GROUP
350
D
3
ACAD_MLINESTYLE
350
17
0
DICTIONARY
5
D
100
AcDbDictionary
0
DICTIONARY
5
1A
330
C
100
AcDbDictionary
0
DICTIONARY
5
17
100
AcDbDictionary
0
ENDSEC
0
EOF
