0
SECTION
2
HEADER
9
$INSUNITS
70
4
9
$ACADVER
1
AC1014
9
$HANDSEED
5
FFFF
0
ENDSEC
0
SECTION
2
TABLES
0
TABLE
2
VPORT
5
8
100
AcDbSymbolTable
0
ENDTAB
0
TABLE
2
LTYPE
5
5
100
AcDbSymbolTable
0
LTYPE
5
14
100
AcDbSymbolTableRecord
100
AcDbLinetypeTableRecord
2
BYBLOCK
70
0
0
LTYPE
5
15
100
AcDbSymbolTableRecord
100
AcDbLinetypeTableRecord
2
BYLAYER
70
0
0
ENDTAB
0
TABLE
2
LAYER
5
2
100
AcDbSymbolTable
70
2
0
LAYER
5
50
100
AcDbSymbolTableRecord
100
AcDbLayerTableRecord
2
0
70
0
6
CONTINUOUS
0
ENDTAB
0
TABLE
2
STYLE
5
3
100
AcDbSymbolTable
70
1
0
STYLE
5
11
100
AcDbSymbolTableRecord
100
AcDbTextStyleTableRecord
2
STANDARD
70
0
0
ENDTAB
0
TABLE
2
VIEW
5
6
100
AcDbSymbolTable
70
0
0
ENDTAB
0
TABLE
2
UCS
5
7
100
AcDbSymbolTable
70
0
0
ENDTAB
0
TABLE
2
APPID
5
9
100
AcDbSymbolTable
70
2
0
APPID
5
12
100
AcDbSymbolTableRecord
100
AcDbRegAppTableRecord
2
ACAD
70
0
0
ENDTAB
0
TABLE
2
DIMSTYLE
5
A
100
AcDbSymbolTable
70
1
0
ENDTAB
0
TABLE
2
BLOCK_RECORD
5
1
100
AcDbSymbolTable
70
1
0
BLOCK_RECORD
5
1F
100
AcDbSymbolTableRecord
100
AcDbBlockTableRecord
2
*MODEL_SPACE
0
BLOCK_RECORD
5
1B
100
AcDbSymbolTableRecord
100
AcDbBlockTableRecord
2
*PAPER_SPACE
0
ENDTAB
0
ENDSEC
0
SECTION
2
BLOCKS
0
BLOCK
5
20
100
AcDbEntity
100
AcDbBlockBegin
2
*MODEL_SPACE
0
ENDBLK
5
21
100
AcDbEntity
100
AcDbBlockEnd
0
BLOCK
5
1C
100
AcDbEntity
100
AcDbBlockBegin
2
*PAPER_SPACE
0
ENDBLK
5
1D
100
AcDbEntity
100
AcDbBlockEnd
0
ENDSEC
0
SECTION
2
ENTITIES
0
LWPOLYLINE
5
100
100
AcDbEntity
8
0
100
AcDbPolyline
90
52
70
1
43
0.0
10
0
20
0
10
4.9569041275155996
20
0
10
4.9569041275155996
20
-5
10
15
20
-5
10
15
20
0
10
24.956904127515603
20
0
10
24.956904127515603
20
-5
10
35
20
-5
10
35
20
0
10
44.9569041275156
20
0
10
44.9569041275156
20
-5
10
55
20
-5
10
55
20
0
10
64.9569041275156
20
0
10
64.9569041275156
20
-5
10
75
20
-5
10
75
20
0
10
84.9569041275156
20
0
10
84.9569041275156
20
-5
10
95
20
-5
10
95
20
0
10
104.956904127516
20
0
10
104.956904127516
20
-5
10
115
20
-5
10
115
20
0
10
124.956904127516
20
0
10
124.956904127516
20
-5
10
135
20
-5
10
135
20
0
10
144.956904127516
20
0
10
144.956904127516
20
-5
10
155
20
-5
10
155
20
0
10
164.956904127516
20
0
10
164.956904127516
20
-5
10
175
20
-5
10
175
20
0
10
184.956904127516
20
0
10
184.956904127516
20
-5
10
195
20
-5
10
195
20
0
10
204.956904127516
20
0
10
204.956904127516
20
-5
10
215
20
-5
10
215
20
0
10
224.956904127516
20
0
10
224.956904127516
20
-5
10
235
20
-5
10
235
20
0
10
240
20
0
10
240
20
15
10
0
20
15
0
CIRCLE
5
101
100
AcDbEntity
8
0
100
AcDbCircle
10
220.05584018731699
20
7.5000000000013696
30
0
40
2.8999999999999999
210
0
220
0
230
1
0
CIRCLE
5
102
100
AcDbEntity
8
0
100
AcDbCircle
10
20.034242198163803
20
7.50000000000139
30
0
40
2.8999999999999999
210
0
220
0
230
1
0
ENDSEC
0
SECTION
2
OBJECTS
0
DICTIONARY
5
C
100
AcDbDictionary
3
ACAD_GROUP
350
D
3
ACAD_MLINESTYLE
350
17
0
DICTIONARY
5
D
100
AcDbDictionary
0
DICTIONARY
5
1A
330
C
100
AcDbDictionary
0
DICTIONARY
5
17
100
AcDbDictionary
0
ENDSEC
0
EOF
