0
SECTION
2
HEADER
9
$INSUNITS
70
4
9
$ACADVER
1
AC1014
9
$HANDSEED
5
FFFF
0
ENDSEC
0
SECTION
2
TABLES
0
TABLE
2
VPORT
5
8
100
AcDbSymbolTable
0
ENDTAB
0
TABLE
2
LTYPE
5
5
100
AcDbSymbolTable
0
LTYPE
5
14
100
AcDbSymbolTableRecord
100
AcDbLinetypeTableRecord
2
BYBLOCK
70
0
0
LTYPE
5
15
100
AcDbSymbolTableRecord
100
AcDbLinetypeTableRecord
2
BYLAYER
70
0
0
ENDTAB
0
TABLE
2
LAYER
5
2
100
AcDbSymbolTable
70
2
0
LAYER
5
50
100
AcDbSymbolTableRecord
100
AcDbLayerTableRecord
2
0
70
0
6
CONTINUOUS
0
ENDTAB
0
TABLE
2
STYLE
5
3
100
AcDbSymbolTable
70
1
0
STYLE
5
11
100
AcDbSymbolTableRecord
100
AcDbTextStyleTableRecord
2
STANDARD
70
0
0
ENDTAB
0
TABLE
2
VIEW
5
6
100
AcDbSymbolTable
70
0
0
ENDTAB
0
TABLE
2
UCS
5
7
100
AcDbSymbolTable
70
0
0
ENDTAB
0
TABLE
2
APPID
5
9
100
AcDbSymbolTable
70
2
0
APPID
5
12
100
AcDbSymbolTableRecord
100
AcDbRegAppTableRecord
2
ACAD
70
0
0
ENDTAB
0
TABLE
2
DIMSTYLE
5
A
100
AcDbSymbolTable
70
1
0
ENDTAB
0
TABLE
2
BLOCK_RECORD
5
1
100
AcDbSymbolTable
70
1
0
BLOCK_RECORD
5
1F
100
AcDbSymbolTableRecord
100
AcDbBlockTableRecord
2
*MODEL_SPACE
0
BLOCK_RECORD
5
1B
100
AcDbSymbolTableRecord
100
AcDbBlockTableRecord
2
*PAPER_SPACE
0
ENDTAB
0
ENDSEC
0
SECTION
2
BLOCKS
0
BLOCK
5
20
100
AcDbEntity
100
AcDbBlockBegin
2
*MODEL_SPACE
0
ENDBLK
5
21
100
AcDbEntity
100
AcDbBlockEnd
0
BLOCK
5
1C
100
AcDbEntity
100
AcDbBlockBegin
2
*PAPER_SPACE
0
ENDBLK
5
1D
100
AcDbEntity
100
AcDbBlockEnd
0
ENDSEC
0
SECTION
2
ENTITIES
0
LWPOLYLINE
5
100
100
AcDbEntity
8
0
100
AcDbPolyline
90
68
70
1
43
0.0
10
-0.089229700483059601
20
-25
10
-0.089229700483045418
20
-15
10
-5.0892297004830498
20
-15
10
-5.08922970048304
20
-5.0000000000000213
10
-15.089229700482999
20
-5
10
-15.089229700482999
20
2.2204460492503131e-15
10
-25.089229700482999
20
2.6020852139652102e-15
10
-25.089229700482999
20
-5.0000000000000213
10
-35.089229700483003
20
-5
10
-35.089229700483003
20
2.2204460492503131e-15
10
-45.089229700483003
20
2.6020852139652102e-15
10
-45.089229700483003
20
-5.0000000000000213
10
-55.089229700483003
20
-5
10
-55.089229700483003
20
2.2204460492503131e-15
10
-65.089229700483003
20
2.6020852139652102e-15
10
-65.089229700483003
20
-5.0000000000000213
10
-75.089229700483003
20
-5
10
-75.089229700483003
20
2.2204460492503131e-15
10
-85.089229700483017
20
2.6020852139652102e-15
10
-85.089229700483017
20
-5.0000000000000213
10
-95.089229700483017
20
-5
10
-95.089229700483017
20
2.2204460492503131e-15
10
-105.08922970048302
20
2.6020852139652102e-15
10
-105.08922970048302
20
-4.9999999999999991
10
-115.08922970048302
20
-5
10
-115.08922970048302
20
2.2204460492503131e-15
10
-135.089229700483
20
2.6020852139652102e-15
10
-135.089229700483
20
-4.9999999999999991
10
-145.089229700483
20
-5
10
-145.089229700483
20
2.2204460492503131e-15
10
-155.089229700483
20
2.6020852139652102e-15
10
-155.089229700483
20
-4.9999999999999991
10
-165.089229700483
20
-5
10
-165.089229700483
20
2.2204460492503131e-15
10
-175.089229700483
20
2.6020852139652102e-15
10
-175.089229700483
20
-4.9999999999999991
10
-185.089229700483
20
-5
10
-185.089229700483
20
2.2204460492503131e-15
10
-195.08922970048303
20
2.6020852139652102e-15
10
-195.08922970048303
20
-4.9999999999999991
10
-205.08922970048303
20
-5
10
-205.08922970048303
20
2.2204460492503131e-15
10
-215.08922970048303
20
2.6020852139652102e-15
10
-215.08922970048303
20
-4.9999999999999991
10
-225.08922970048303
20
-5
10
-225.08922970048303
20
2.2204460492503131e-15
10
-235.08922970048303
20
2.6020852139652102e-15
10
-235.08922970048303
20
-4.9999999999999991
10
-245.08922970048303
20
-5
10
-245.08922970048303
20
-15
10
-250.08922970048303
20
-15
10
-250.08922970048303
20
-25
10
-245.08922970048303
20
-25
10
-245.08922970048303
20
-35
10
-250.08922970048303
20
-35
10
-250.08922970048303
20
-45
10
-245.08922970048303
20
-45
10
-245.08922970048303
20
-60
10
-250
20
-60
10
-250
20
-65
10
0
20
-65
10
0
20
-60
10
-5.0892297004830702
20
-60
10
-5.0892297004830596
20
-45
10
-0.089229700483060004
20
-45
10
-0.089229700483059296
20
-35
10
-5.0892297004830596
20
-35
10
-5.0892297004830596
20
-25
0
LWPOLYLINE
5
101
100
AcDbEntity
8
0
100
AcDbPolyline
90
4
70
1
43
0.0
10
-155.089229700483
20
-12.499999999999503
10
-135.089229700483
20
-12.499999999999405
42
-0.99999999999999989
10
-135.089229700483
20
-37.499999999999602
10
-155.089229700483
20
-37.499999999999503
42
-0.99999999999999989
0
ENDSEC
0
SECTION
2
OBJECTS
0
DICTIONARY
5
C
100
AcDbDictionary
3
ACAD_GROUP
350
D
3
ACAD_MLINESTYLE
350
17
0
DICTIONARY
5
D
100
AcDbDictionary
0
DICTIONARY
5
1A
330
C
100
AcDbDictionary
0
DICTIONARY
5
17
100
AcDbDictionary
0
ENDSEC
0
EOF
