0
SECTION
2
HEADER
9
$INSUNITS
70
4
9
$ACADVER
1
AC1014
9
$HANDSEED
5
FFFF
0
ENDSEC
0
SECTION
2
TABLES
0
TABLE
2
VPORT
5
8
100
AcDbSymbolTable
0
ENDTAB
0
TABLE
2
LTYPE
5
5
100
AcDbSymbolTable
0
LTYPE
5
14
100
AcDbSymbolTableRecord
100
AcDbLinetypeTableRecord
2
BYBLOCK
70
0
0
LTYPE
5
15
100
AcDbSymbolTableRecord
100
AcDbLinetypeTableRecord
2
BYLAYER
70
0
0
ENDTAB
0
TABLE
2
LAYER
5
2
100
AcDbSymbolTable
70
2
0
LAYER
5
50
100
AcDbSymbolTableRecord
100
AcDbLayerTableRecord
2
0
70
0
6
CONTINUOUS
0
ENDTAB
0
TABLE
2
STYLE
5
3
100
AcDbSymbolTable
70
1
0
STYLE
5
11
100
AcDbSymbolTableRecord
100
AcDbTextStyleTableRecord
2
STANDARD
70
0
0
ENDTAB
0
TABLE
2
VIEW
5
6
100
AcDbSymbolTable
70
0
0
ENDTAB
0
TABLE
2
UCS
5
7
100
AcDbSymbolTable
70
0
0
ENDTAB
0
TABLE
2
APPID
5
9
100
AcDbSymbolTable
70
2
0
APPID
5
12
100
AcDbSymbolTableRecord
100
AcDbRegAppTableRecord
2
ACAD
70
0
0
ENDTAB
0
TABLE
2
DIMSTYLE
5
A
100
AcDbSymbolTable
70
1
0
ENDTAB
0
TABLE
2
BLOCK_RECORD
5
1
100
AcDbSymbolTable
70
1
0
BLOCK_RECORD
5
1F
100
AcDbSymbolTableRecord
100
AcDbBlockTableRecord
2
*MODEL_SPACE
0
BLOCK_RECORD
5
1B
100
AcDbSymbolTableRecord
100
AcDbBlockTableRecord
2
*PAPER_SPACE
0
ENDTAB
0
ENDSEC
0
SECTION
2
BLOCKS
0
BLOCK
5
20
100
AcDbEntity
100
AcDbBlockBegin
2
*MODEL_SPACE
0
ENDBLK
5
21
100
AcDbEntity
100
AcDbBlockEnd
0
BLOCK
5
1C
100
AcDbEntity
100
AcDbBlockBegin
2
*PAPER_SPACE
0
ENDBLK
5
1D
100
AcDbEntity
100
AcDbBlockEnd
0
ENDSEC
0
SECTION
2
ENTITIES
0
LWPOLYLINE
5
100
100
AcDbEntity
8
0
100
AcDbPolyline
90
174
70
1
43
0.0
10
-40.000000000000497
20
120
10
-47.000000000000497
20
120
10
-47.000000000000497
20
110
10
-50.000000000000497
20
110
10
-50.000000000000497
20
125
10
-60.000000000000497
20
125
10
-60.000000000000497
20
120
10
-70.000000000000497
20
120
10
-70.000000000000497
20
125
10
-80.000000000000497
20
125
10
-80.000000000000497
20
120
10
-90.000000000000497
20
120
10
-90.000000000000497
20
125
10
-100.00000000000099
20
125
10
-100.00000000000099
20
120
10
-110.00000000000099
20
120
10
-110.00000000000099
20
125
10
-125
20
125
10
-125
20
110
10
-120
20
110
10
-120
20
100
10
-125
20
100
10
-125
20
90
10
-120
20
90
10
-120
20
80
10
-125
20
80
10
-125
20
70
10
-120
20
70
10
-120
20
60
10
-125
20
60
10
-125
20
50
10
-120
20
50
10
-120
20
40
10
-125
20
40
10
-125
20
30
10
-120
20
30
10
-120
20
20
10
-125
20
20
10
-125
20
9.9999999999999911
10
-120
20
10
10
-120
20
-9.9999999999999911
10
-125
20
-10
10
-125
20
-20
10
-120
20
-20
10
-120
20
-30
10
-125
20
-30
10
-125
20
-40
10
-120
20
-40
10
-120
20
-50
10
-125
20
-50
10
-125
20
-60
10
-120
20
-60
10
-120
20
-70
10
-125
20
-70
10
-125
20
-80
10
-120
20
-80
10
-120
20
-90
10
-125
20
-90
10
-125
20
-100
10
-120
20
-100
10
-120
20
-110
10
-125
20
-110
10
-125
20
-125
10
-110.00000000000099
20
-125
10
-110.00000000000099
20
-120
10
-100.00000000000099
20
-120
10
-100.00000000000099
20
-125
10
-90.000000000000497
20
-125
10
-90.000000000000497
20
-120
10
-80.000000000000497
20
-120
10
-80.000000000000497
20
-125
10
-70.000000000000497
20
-125
10
-70.000000000000497
20
-120
10
-60.000000000000497
20
-120
10
-60.000000000000497
20
-125
10
-50.000000000000497
20
-125
10
-50.000000000000497
20
-120
10
-40.000000000000497
20
-120
10
-40.000000000000497
20
-125
10
-30.000000000000501
20
-125
10
-30.000000000000501
20
-120
10
-20.000000000000501
20
-120
10
-20.000000000000501
20
-125
10
-10.000000000000499
20
-125
10
-10.000000000000499
20
-120
10
10.000000000000499
20
-120
10
10.000000000000499
20
-125
10
20.000000000000501
20
-125
10
20.000000000000501
20
-120
10
30.000000000000501
20
-120
10
30.000000000000501
20
-125
10
40.000000000000497
20
-125
10
40.000000000000497
20
-120
10
50.000000000000497
20
-120
10
50.000000000000497
20
-125
10
60.000000000000497
20
-125
10
60.000000000000497
20
-120
10
70.000000000000497
20
-120
10
70.000000000000497
20
-125
10
80.000000000000497
20
-125
10
80.000000000000497
20
-120
10
90.000000000000497
20
-120
10
90.000000000000497
20
-125
10
100.00000000000099
20
-125
10
100.00000000000099
20
-120
10
110.00000000000099
20
-120
10
110.00000000000099
20
-125
10
125
20
-125
10
125
20
-110
10
120
20
-110
10
120
20
-100
10
125
20
-100
10
125
20
-90
10
120
20
-90
10
120
20
-80
10
125
20
-80
10
125
20
-70
10
120
20
-70
10
120
20
-60
10
125
20
-60
10
125
20
-50
10
120
20
-50
10
120
20
-40
10
125
20
-40
10
125
20
-30
10
120
20
-30
10
120
20
-20
10
125
20
-20
10
125
20
-9.9999999999999911
10
120
20
-10
10
120
20
9.9999999999999911
10
125
20
10
10
125
20
20
10
120
20
20
10
120
20
30
10
125
20
30
10
125
20
40
10
120
20
40
10
120
20
50
10
125
20
50
10
125
20
60
10
120
20
60
10
120
20
70
10
125
20
70
10
125
20
80
10
120
20
80
10
120
20
90
10
125
20
90
10
125
20
100
10
120
20
100
10
120
20
110
10
125
20
110
10
125
20
125
10
70.000000000000497
20
125
10
70.000000000000497
20
120
10
60.000000000000497
20
120
10
60.000000000000497
20
125
10
50.000000000000497
20
125
10
50.000000000000497
20
120
10
40.000000000000497
20
120
10
40.000000000000497
20
125
10
30.000000000000501
20
125
10
30.000000000000501
20
120
10
20.000000000000501
20
120
10
20.000000000000501
20
125
10
10.000000000000499
20
125
10
10.000000000000499
20
120
10
-10.000000000000499
20
120
10
-10.000000000000499
20
125
10
-20.000000000000501
20
125
10
-20.000000000000501
20
120
10
-30.000000000000501
20
120
10
-30.000000000000501
20
125
10
-40.000000000000497
20
125
0
LWPOLYLINE
5
101
100
AcDbEntity
8
0
100
AcDbPolyline
90
6
70
1
43
0.0
10
-47.000000000000099
20
29.999999999999805
10
-50.000000000000107
20
29.999999999999805
10
-50.000000000000206
20
39.999999999999801
10
-59.99999999999541
20
39.999999999987701
10
-59.99999999999541
20
42.999999999987708
10
-47.000000000000199
20
42.999999999987807
0
LWPOLYLINE
5
102
100
AcDbEntity
8
0
100
AcDbPolyline
90
4
70
1
43
0.0
10
39.499999999999403
20
-100
10
39.499999999999403
20
-110
10
36.499999999999403
20
-110
10
36.499999999999403
20
-100
0
LWPOLYLINE
5
103
100
AcDbEntity
8
0
100
AcDbPolyline
90
4
70
1
43
0.0
10
39.499999999999503
20
-80.000000000000199
10
39.499999999999503
20
-90.000000000000199
10
36.499999999999503
20
-90.000000000000199
10
36.499999999999503
20
-80.000000000000199
0
LWPOLYLINE
5
104
100
AcDbEntity
8
0
100
AcDbPolyline
90
4
70
1
43
0.0
10
39.499999999999503
20
-60.000000000000206
10
39.499999999999503
20
-70.000000000000199
10
36.499999999999503
20
-70.000000000000114
10
36.499999999999503
20
-60.000000000000206
0
LWPOLYLINE
5
105
100
AcDbEntity
8
0
100
AcDbPolyline
90
4
70
1
43
0.0
10
-47.000000000000398
20
99.999999999999801
10
-47.000000000000398
20
89.999999999999801
10
-50.000000000000398
20
89.999999999999801
10
-50.000000000000398
20
99.999999999999801
0
LWPOLYLINE
5
106
100
AcDbEntity
8
0
100
AcDbPolyline
90
4
70
1
43
0.0
10
-47.000000000000306
20
79.999999999999801
10
-47.000000000000306
20
69.999999999999801
10
-50.000000000000298
20
69.999999999999801
10
-50.000000000000298
20
79.999999999999801
0
LWPOLYLINE
5
107
100
AcDbEntity
8
0
100
AcDbPolyline
90
4
70
1
43
0.0
10
-47.000000000000199
20
59.999999999999801
10
-47.000000000000199
20
49.999999999999801
10
-50.000000000000206
20
49.999999999999801
10
-50.000000000000206
20
59.999999999999801
0
LWPOLYLINE
5
108
100
AcDbEntity
8
0
100
AcDbPolyline
90
4
70
1
43
0.0
10
-47.000000000000099
20
19.999999999999801
10
-47
20
9.9999999999997904
10
-50
20
9.9999999999997904
10
-50.000000000000107
20
19.999999999999801
0
LWPOLYLINE
5
109
100
AcDbEntity
8
0
100
AcDbPolyline
90
4
70
1
43
0.0
10
39.499999999999503
20
-40.000000000000206
10
39.499999999999503
20
-50.000000000000206
10
36.499999999999503
20
-50.000000000000206
10
36.499999999999503
20
-40.000000000000206
0
LWPOLYLINE
5
110
100
AcDbEntity
8
0
100
AcDbPolyline
90
4
70
1
43
0.0
10
39.499999999999503
20
-20.000000000000199
10
39.499999999999503
20
-30.000000000000199
10
36.499999999999503
20
-30.000000000000199
10
36.499999999999503
20
-20.000000000000199
0
LWPOLYLINE
5
111
100
AcDbEntity
8
0
100
AcDbPolyline
90
4
70
1
43
0.0
10
39.499999999999602
20
-1.7053025658242399e-13
10
39.499999999999602
20
-10.000000000000203
10
36.499999999999602
20
-10.000000000000203
10
36.499999999999602
20
-1.7097434579227411e-13
0
LWPOLYLINE
5
112
100
AcDbEntity
8
0
100
AcDbPolyline
90
4
70
1
43
0.0
10
39.499999999999602
20
19.999999999999801
10
39.499999999999602
20
9.999999999999801
10
36.499999999999602
20
9.999999999999801
10
36.499999999999602
20
19.999999999999801
0
LWPOLYLINE
5
113
100
AcDbEntity
8
0
100
AcDbPolyline
90
4
70
1
43
0.0
10
39.499999999999602
20
39.999999999999801
10
39.499999999999602
20
29.999999999999805
10
36.499999999999602
20
29.999999999999805
10
36.499999999999602
20
39.999999999999801
0
LWPOLYLINE
5
114
100
AcDbEntity
8
0
100
AcDbPolyline
90
4
70
1
43
0.0
10
39.499999999999702
20
79.999999999999801
10
39.499999999999702
20
69.999999999999801
10
36.499999999999702
20
69.999999999999801
10
36.499999999999702
20
79.999999999999801
0
LWPOLYLINE
5
115
100
AcDbEntity
8
0
100
AcDbPolyline
90
4
70
1
43
0.0
10
39.499999999999702
20
99.999999999999801
10
39.499999999999702
20
89.999999999999801
10
36.499999999999702
20
89.999999999999801
10
36.499999999999702
20
99.999999999999801
0
LWPOLYLINE
5
116
100
AcDbEntity
8
0
100
AcDbPolyline
90
4
70
1
43
0.0
10
39.499999999999801
20
120
10
39.499999999999801
20
110
10
36.499999999999702
20
110
10
36.499999999999801
20
120
0
LWPOLYLINE
5
117
100
AcDbEntity
8
0
100
AcDbPolyline
90
4
70
1
43
0.0
10
-47
20
-1.7053025658242399e-13
10
-47
20
-10.000000000000203
10
-50
20
-10.000000000000203
10
-50
20
-1.9984014443252818e-13
0
LWPOLYLINE
5
118
100
AcDbEntity
8
0
100
AcDbPolyline
90
4
70
1
43
0.0
10
-46.999999999999901
20
-20.000000000000199
10
-46.999999999999901
20
-30.000000000000199
10
-49.999999999999901
20
-30.000000000000199
10
-49.999999999999901
20
-20.000000000000199
0
LWPOLYLINE
5
119
100
AcDbEntity
8
0
100
AcDbPolyline
90
4
70
1
43
0.0
10
-46.999999999999808
20
-40.000000000000099
10
-46.999999999999808
20
-50.000000000000206
10
-49.999999999999801
20
-50.000000000000206
10
-49.999999999999801
20
-40.000000000000206
0
LWPOLYLINE
5
120
100
AcDbEntity
8
0
100
AcDbPolyline
90
4
70
1
43
0.0
10
-46.999999999999702
20
-60.000000000000107
10
-46.999999999999702
20
-70.000000000000199
10
-49.999999999999709
20
-70.000000000000199
10
-49.999999999999709
20
-60.000000000000206
0
LWPOLYLINE
5
121
100
AcDbEntity
8
0
100
AcDbPolyline
90
4
70
1
43
0.0
10
-46.999999999999702
20
-80.000000000000199
10
-46.999999999999602
20
-90.000000000000199
10
-49.999999999999609
20
-90.000000000000199
10
-49.999999999999709
20
-80.000000000000199
0
LWPOLYLINE
5
122
100
AcDbEntity
8
0
100
AcDbPolyline
90
4
70
1
43
0.0
10
-46.999999999999602
20
-100
10
-46.999999999999503
20
-110
10
-49.999999999999503
20
-110
10
-49.999999999999609
20
-100
0
LWPOLYLINE
5
123
100
AcDbEntity
8
0
100
AcDbPolyline
90
6
70
1
43
0.0
10
49.499999999994806
20
53.000000000005407
10
49.499999999994806
20
50.0000000000054
10
36.499999999999602
20
49.999999999999801
10
36.499999999999602
20
59.999999999999801
10
39.499999999999602
20
59.999999999999801
10
39.499999999999702
20
53.000000000005407
0
CIRCLE
5
124
100
AcDbEntity
8
0
100
AcDbCircle
10
-42.500000000018296
20
-71.000000000006196
30
0
40
1
210
0
220
0
230
1
0
CIRCLE
5
125
100
AcDbEntity
8
0
100
AcDbCircle
10
31.999999999981902
20
-71.000000000005997
30
0
40
1
210
0
220
0
230
1
0
CIRCLE
5
126
100
AcDbEntity
8
0
100
AcDbCircle
10
31.9999999999817
20
45.999999999994003
30
0
40
1
210
0
220
0
230
1
0
CIRCLE
5
127
100
AcDbEntity
8
0
100
AcDbCircle
10
-42.500000000018403
20
45.999999999993904
30
0
40
1
210
0
220
0
230
1
0
ENDSEC
0
SECTION
2
OBJECTS
0
DICTIONARY
5
C
100
AcDbDictionary
3
ACAD_GROUP
350
D
3
ACAD_MLINESTYLE
350
17
0
DICTIONARY
5
D
100
AcDbDictionary
0
DICTIONARY
5
1A
330
C
100
AcDbDictionary
0
DICTIONARY
5
17
100
AcDbDictionary
0
ENDSEC
0
EOF
